<?xml version="1.0" encoding="utf-8"?>
<!-- Generator: Adobe Illustrator 27.0.1, SVG Export Plug-In . SVG Version: 6.00 Build 0)  -->
<svg version="1.1" id="Layer_1" xmlns="http://www.w3.org/2000/svg" xmlns:xlink="http://www.w3.org/1999/xlink" x="0px" y="0px"
	 width="120px" height="90px" viewBox="0 0 120 90" style="enable-background:new 0 0 120 90;" xml:space="preserve">
<style type="text/css">
	.st0{fill:#FFFFFF;}
</style>
<g>
	<path class="st0" d="M22.7,4.4l49.2-3.6c6-0.5,7.6-0.2,11.4,2.6L99,14.4c2.6,1.9,3.5,2.4,3.5,4.5v60.7c0,3.8-1.4,6.1-6.2,6.4
		l-57.1,3.5c-3.6,0.2-5.4-0.3-7.3-2.8l-11.6-15c-2.1-2.8-2.9-4.8-2.9-7.3V10.4C17.4,7.3,18.8,4.7,22.7,4.4z"/>
	<path d="M72.1,0.2L22.3,3.9c-4,0.3-5.4,3-5.4,6.1v54.6c0,2.5,0.9,4.5,3,7.3l11.7,15.2c1.9,2.5,3.7,3,7.3,2.8l57.8-3.5
		c4.9-0.3,6.3-2.6,6.3-6.5V18.6c0-2-0.8-2.6-3.1-4.3c-0.1-0.1-0.3-0.2-0.4-0.3L83.6,2.8C79.8,0,78.2-0.3,72.1,0.2z M40.2,17.6
		c-4.7,0.3-5.8,0.4-8.5-1.8l-6.8-5.4c-0.7-0.7-0.3-1.6,1.4-1.8l47.9-3.5c4-0.4,6.1,1,7.7,2.3l8.2,5.9c0.4,0.2,1.2,1.2,0.2,1.2
		l-49.4,3L40.2,17.6z M34.7,79.5V27.3c0-2.3,0.7-3.3,2.8-3.5l56.8-3.3c1.9-0.2,2.8,1,2.8,3.3v51.8c0,2.3-0.4,4.2-3.5,4.4l-54.3,3.1
		C36.1,83.3,34.7,82.3,34.7,79.5z M88.3,30.1c0.3,1.6,0,3.1-1.6,3.3L84.1,34v38.5c-2.3,1.2-4.4,1.9-6.1,1.9c-2.8,0-3.5-0.9-5.6-3.5
		L55.3,44V70l5.4,1.2c0,0,0,3.1-4.4,3.1l-12.1,0.7c-0.4-0.7,0-2.5,1.2-2.8l3.1-0.9V37l-4.4-0.4c-0.4-1.6,0.5-3.8,3-4l12.9-0.9L78,59
		V34.9l-4.5-0.5c-0.4-1.9,1-3.3,2.8-3.5L88.3,30.1L88.3,30.1z"/>
</g>
</svg>
