<?xml version="1.0" encoding="utf-8"?>
<!-- Generator: Adobe Illustrator 27.0.1, SVG Export Plug-In . SVG Version: 6.00 Build 0)  -->
<svg version="1.1" id="Layer_1" xmlns="http://www.w3.org/2000/svg" xmlns:xlink="http://www.w3.org/1999/xlink" x="0px" y="0px"
	 viewBox="0 0 120 90" style="enable-background:new 0 0 120 90;" xml:space="preserve">
<style type="text/css">
	.st0{fill-rule:evenodd;clip-rule:evenodd;fill:#FEEEB7;}
	.st1{fill-rule:evenodd;clip-rule:evenodd;fill:#EA6C00;}
	.st2{fill-rule:evenodd;clip-rule:evenodd;fill:#FDAD00;}
	.st3{fill-rule:evenodd;clip-rule:evenodd;fill:#FDD231;}
</style>
<g>
	<polygon class="st0" points="88,3 60,0 32,3 10.3,32.1 60,90 109.7,32.1 	"/>
	<path class="st1" d="M30.4,32.1L60,90L10.3,32.1H30.4z"/>
	<path class="st1" d="M89.6,32.1L60,90l49.7-57.9H89.6z"/>
	<path class="st2" d="M30.4,32.1h59.2L60,90L30.4,32.1z"/>
	<path class="st3" d="M60,0L32,3l-1.6,29.1L60,0z"/>
	<path class="st3" d="M60,0l28,3l1.6,29.1L60,0z"/>
	<path class="st2" d="M109.7,32.1L88,3l1.6,29.1H109.7z"/>
	<path class="st2" d="M10.3,32.1L32,3l-1.6,29.1H10.3z"/>
	<path class="st0" d="M60,0L30.4,32.1h59.2L60,0z"/>
</g>
</svg>
