<?xml version="1.0" encoding="utf-8"?>
<!-- Generator: Adobe Illustrator 24.1.2, SVG Export Plug-In . SVG Version: 6.00 Build 0)  -->
<svg version="1.1" id="Layer_1" xmlns="http://www.w3.org/2000/svg" xmlns:xlink="http://www.w3.org/1999/xlink" x="0px" y="0px"
	 width="120px" height="90px" viewBox="0 0 120 90" style="enable-background:new 0 0 120 90;" xml:space="preserve">
<style type="text/css">
	.st0{fill:#265787;}
	.st1{fill:#EA7600;}
</style>
<g>
	<g transform="matrix(2.66418,0,0,2.66418,-520.324,532.513)">
		<path class="st0" d="M219.1-180.9c0.1-1.4,0.8-2.6,1.8-3.5c1-0.9,2.4-1.4,3.8-1.4c1.5,0,2.8,0.5,3.8,1.4c1,0.9,1.7,2.1,1.8,3.5
			c0.1,1.4-0.5,2.7-1.5,3.7c-1,1-2.5,1.6-4.1,1.6c-1.6,0-3.1-0.6-4.1-1.6C219.6-178.1,219-179.5,219.1-180.9z"/>
	</g>
	<g transform="matrix(2.66418,0,0,2.66418,-520.324,532.513)">
		<path class="st1" d="M210.2-178.1c0,0.5,0.2,1.6,0.4,2.4c0.5,1.7,1.5,3.4,2.8,4.8c1.3,1.5,2.9,2.6,4.8,3.5c2,0.9,4.1,1.3,6.3,1.3
			c2.2,0,4.4-0.5,6.3-1.3c1.9-0.8,3.5-2,4.8-3.5c1.3-1.4,2.2-3,2.8-4.8c0.3-0.9,0.4-1.8,0.5-2.7c0.1-0.9,0-1.8-0.1-2.7
			c-0.2-1.7-0.8-3.3-1.8-4.8c-0.8-1.4-1.9-2.5-3.2-3.5l0,0l-13-10c0,0,0,0,0,0c-0.9-0.7-2.3-0.7-3.2,0c-0.9,0.7-1.1,1.8-0.2,2.5l0,0
			l5.4,4.4l-16.5,0h0c-1.4,0-2.7,0.9-2.9,2c-0.3,1.2,0.7,2.1,2.1,2.1l0,0l8.4,0l-14.9,11.5c0,0,0,0-0.1,0c-1.4,1.1-1.9,2.9-1,4
			c0.9,1.2,2.8,1.2,4.2,0l8.2-6.7C210.3-179.5,210.1-178.6,210.2-178.1z M231.1-175.1c-1.7,1.7-4,2.7-6.6,2.7c-2.5,0-4.9-1-6.6-2.7
			c-0.8-0.8-1.4-1.8-1.8-2.8c-0.4-1-0.5-2.1-0.4-3.1c0.1-1,0.4-2.1,0.9-3c0.5-0.9,1.2-1.7,2-2.4c1.6-1.3,3.7-2.1,5.9-2.1
			c2.2,0,4.3,0.7,5.9,2c0.8,0.7,1.5,1.5,2,2.4c0.5,0.9,0.8,1.9,0.9,3c0.1,1.1,0,2.1-0.4,3.1C232.5-176.9,231.9-175.9,231.1-175.1z"
			/>
	</g>
</g>
</svg>
