<?xml version="1.0" encoding="utf-8"?>
<!-- Generator: Adobe Illustrator 27.0.1, SVG Export Plug-In . SVG Version: 6.00 Build 0)  -->
<svg version="1.1" id="Слой_1" xmlns="http://www.w3.org/2000/svg" xmlns:xlink="http://www.w3.org/1999/xlink" x="0px" y="0px"
	 viewBox="0 0 264 88" style="enable-background:new 0 0 264 88;" xml:space="preserve">
<style type="text/css">
	.st0{fill:#FFFFFF;}
	.st1{fill:#121319;}
</style>
<path class="st0" d="M28,14.9v3c0,0.5-0.4,0.9-0.9,0.9s-0.9-0.4-0.9-0.9v-2.1H24c-0.5,0-0.9-0.4-0.9-0.9S23.5,14,24,14h3
	C27.6,14,28,14.4,28,14.9z M18,26.2h-2.1v-2.1c0-0.5-0.4-0.9-0.9-0.9S14,23.6,14,24.1v3c0,0.5,0.4,0.9,0.9,0.9h3
	c0.5,0,0.9-0.4,0.9-0.9S18.5,26.2,18,26.2z M27.1,23.2c-0.5,0-0.9,0.4-0.9,0.9v2.1H24c-0.5,0-0.9,0.4-0.9,0.9S23.5,28,24,28h3
	c0.5,0,0.9-0.4,0.9-0.9v-3C28,23.6,27.6,23.2,27.1,23.2z M18,14h-3c-0.5,0-0.9,0.4-0.9,0.9v3c0,0.5,0.4,0.9,0.9,0.9s0.9-0.4,0.9-0.9
	v-2.1H18c0.5,0,0.9-0.4,0.9-0.9S18.5,14,18,14z"/>
<path class="st1" d="M27.7,70.6c0.3,0.3,0.3,0.9,0,1.2s-0.9,0.3-1.2,0L22,67.3l-4.5,4.5c-0.3,0.3-0.9,0.3-1.2,0s-0.3-0.9,0-1.2
	l4.5-4.5l-4.5-4.5c-0.3-0.3-0.3-0.9,0-1.2c0.3-0.3,0.9-0.3,1.2,0l4.5,4.5l4.5-4.5c0.3-0.3,0.9-0.3,1.2,0s0.3,0.9,0,1.2l-4.5,4.5
	L27.7,70.6z"/>
<path class="st0" d="M65.9,18.6v-3.7c0-0.5,0.4-0.9,0.9-0.9s0.9,0.4,0.9,0.9v2.7h2.7c0.5,0,0.9,0.4,0.9,0.9c0,0.5-0.4,0.9-0.9,0.9
	h-3.7C66.3,19.5,65.9,19.1,65.9,18.6z M61.9,22.5h-3.7c-0.5,0-0.9,0.4-0.9,0.9c0,0.5,0.4,0.9,0.9,0.9H61v2.7c0,0.5,0.4,0.9,0.9,0.9
	s0.9-0.4,0.9-0.9v-3.7C62.8,22.9,62.4,22.5,61.9,22.5z M70.4,22.5h-3.7c-0.5,0-0.9,0.4-0.9,0.9v3.7c0,0.5,0.4,0.9,0.9,0.9
	s0.9-0.4,0.9-0.9v-2.7h2.7c0.5,0,0.9-0.4,0.9-0.9C71.3,22.9,70.9,22.5,70.4,22.5z M61.9,14c-0.5,0-0.9,0.4-0.9,0.9v2.7h-2.7
	c-0.5,0-0.9,0.4-0.9,0.9c0,0.5,0.4,0.9,0.9,0.9h3.7c0.5,0,0.9-0.4,0.9-0.9v-3.7C62.8,14.4,62.4,14,61.9,14z"/>
<path class="st0" d="M68.4,66.8c-0.6,0-1.3,0.2-1.8,0.7l-2.5-1.6c0.2-0.5,0.2-1,0-1.5l2.5-1.6c1.1,1,2.8,0.9,3.7-0.2
	c1-1.1,0.9-2.8-0.2-3.7s-2.8-0.9-3.7,0.2c-0.6,0.7-0.8,1.6-0.5,2.5l-2.5,1.6c-1.1-1-2.8-0.9-3.8,0.2s-0.9,2.8,0.2,3.8
	c1,0.9,2.5,0.9,3.5,0l2.5,1.6c-0.4,1.4,0.4,2.9,1.8,3.3s2.9-0.4,3.3-1.8s-0.4-2.9-1.8-3.3C68.9,66.8,68.6,66.8,68.4,66.8z
	 M68.4,59.5c0.7,0,1.2,0.5,1.2,1.2S69.1,62,68.4,62s-1.2-0.5-1.2-1.2S67.7,59.5,68.4,59.5z M61.6,66.3c-0.7,0-1.2-0.5-1.2-1.2
	c0-0.7,0.5-1.2,1.2-1.2c0.7,0,1.2,0.5,1.2,1.2C62.8,65.8,62.3,66.3,61.6,66.3z M68.4,70.6c-0.7,0-1.2-0.5-1.2-1.2
	c0-0.7,0.5-1.2,1.2-1.2s1.2,0.5,1.2,1.2C69.6,70.1,69.1,70.6,68.4,70.6z"/>
<path class="st0" d="M110.8,20c0,0.4-0.3,0.8-0.8,0.8h-1.3v1.3c0,0.4-0.3,0.8-0.8,0.8s-0.8-0.3-0.8-0.8v-1.3h-1.3
	c-0.4,0-0.8-0.3-0.8-0.8s0.3-0.8,0.8-0.8h1.3v-1.3c0-0.4,0.3-0.8,0.8-0.8s0.8,0.3,0.8,0.8v1.3h1.3C110.5,19.2,110.8,19.6,110.8,20z
	 M115.8,27.8c-0.3,0.3-0.8,0.3-1.1,0c0,0,0,0,0,0l-3.1-3.1c-2.6,2-6.4,1.5-8.4-1.1s-1.5-6.4,1.1-8.4s6.4-1.5,8.4,1.1
	c1.6,2.1,1.6,5.1,0,7.3l3.1,3.1C116.1,27,116.1,27.5,115.8,27.8z M108,24.4c2.4,0,4.4-2,4.4-4.4s-2-4.4-4.4-4.4s-4.4,2-4.4,4.4
	C103.6,22.4,105.5,24.4,108,24.4z"/>
<path class="st0" d="M154.2,20c0,0.4-0.3,0.8-0.8,0.8h-4.1c-0.4,0-0.8-0.3-0.8-0.8s0.3-0.8,0.8-0.8h4.1
	C153.8,19.2,154.2,19.6,154.2,20z M159.1,27.8c-0.3,0.3-0.8,0.3-1.1,0c0,0,0,0,0,0l-3.1-3.1c-2.6,2-6.4,1.5-8.4-1.1
	s-1.5-6.4,1.1-8.4s6.4-1.5,8.4,1.1c1.6,2.1,1.6,5.1,0,7.3l3.1,3.1C159.4,27,159.4,27.5,159.1,27.8z M151.3,24.4c2.4,0,4.4-2,4.4-4.4
	s-2-4.4-4.4-4.4c-2.4,0-4.4,2-4.4,4.4C146.9,22.4,148.9,24.4,151.3,24.4z"/>
<path class="st1" d="M114.2,66.7l-5.2,5.2c-0.3,0.3-0.8,0.3-1.1,0c-0.3-0.3-0.3-0.8,0-1.1l4.7-4.7l-4.7-4.7c-0.3-0.3-0.3-0.8,0-1.1
	c0.3-0.3,0.8-0.3,1.1,0l5.2,5.2C114.5,65.9,114.5,66.3,114.2,66.7C114.2,66.7,114.2,66.7,114.2,66.7z"/>
<path class="st1" d="M156.3,70.6c0.3,0.3,0.3,0.8,0,1.1c-0.3,0.3-0.8,0.3-1.1,0l-5.2-5.2c-0.3-0.3-0.3-0.8,0-1.1c0,0,0,0,0,0
	l5.2-5.2c0.3-0.3,0.8-0.3,1.1,0c0.3,0.3,0.3,0.8,0,1.1l-4.7,4.7L156.3,70.6z"/>
</svg>
